<svg xmlns="http://www.w3.org/2000/svg" viewBox="0 0 300 120" fill="white">
  <!-- Cross (+) -->
  <rect x="10" y="40" width="18" height="48" rx="1"/>
  <rect x="0" y="54" width="38" height="18" rx="1"/>

  <!-- D -->
  <rect x="52" y="20" width="16" height="80" rx="1"/>
  <path d="M66 20 H88 C108 20 122 36 122 60 C122 84 108 100 88 100 H66 V20Z"/>
  <rect x="68" y="34" width="4" height="52" rx="0" fill="black"/>
  <path d="M72 34 H86 C100 34 106 44 106 60 C106 76 100 86 86 86 H72 V34Z" fill="black"/>

  <!-- F -->
  <rect x="136" y="20" width="16" height="80" rx="1"/>
  <rect x="136" y="20" width="56" height="18" rx="1"/>
  <rect x="136" y="52" width="44" height="16" rx="1"/>
</svg>
